<mxfile host="65bd71144e">
    <diagram id="XXd6pPZVZHxNrgmQ0Vfv" name="Page-1">
        <mxGraphModel dx="2096" dy="1416" grid="0" gridSize="10" guides="1" tooltips="1" connect="1" arrows="1" fold="1" page="0" pageScale="1" pageWidth="850" pageHeight="1100" math="0" shadow="0">
            <root>
                <mxCell id="0"/>
                <mxCell id="1" parent="0"/>
                <mxCell id="2" value="TourBloc" style="shape=umlLifeline;perimeter=lifelinePerimeter;whiteSpace=wrap;html=1;container=1;collapsible=0;recursiveResize=0;outlineConnect=0;rounded=1;shadow=0;comic=0;labelBackgroundColor=none;strokeWidth=1;fontFamily=Verdana;fontSize=12;align=center;" parent="1" vertex="1">
                    <mxGeometry x="673.71" y="462" width="100" height="548" as="geometry"/>
                </mxCell>
                <mxCell id="3" value="" style="html=1;points=[];perimeter=orthogonalPerimeter;rounded=0;shadow=0;comic=0;labelBackgroundColor=none;strokeWidth=1;fontFamily=Verdana;fontSize=12;align=center;" parent="2" vertex="1">
                    <mxGeometry x="45" y="100" width="10" height="349" as="geometry"/>
                </mxCell>
                <mxCell id="59" style="edgeStyle=none;html=1;dashed=1;" parent="1" source="8" edge="1">
                    <mxGeometry relative="1" as="geometry">
                        <mxPoint x="1021.21" y="869" as="sourcePoint"/>
                        <mxPoint x="731.71" y="869" as="targetPoint"/>
                    </mxGeometry>
                </mxCell>
                <mxCell id="60" value="POI's" style="edgeLabel;html=1;align=center;verticalAlign=middle;resizable=0;points=[];" parent="59" vertex="1" connectable="0">
                    <mxGeometry x="0.1688" y="-1" relative="1" as="geometry">
                        <mxPoint x="169" y="-9" as="offset"/>
                    </mxGeometry>
                </mxCell>
                <mxCell id="8" value="MapBloc" style="shape=umlLifeline;perimeter=lifelinePerimeter;whiteSpace=wrap;html=1;container=1;collapsible=0;recursiveResize=0;outlineConnect=0;rounded=1;shadow=0;comic=0;labelBackgroundColor=none;strokeWidth=1;fontFamily=Verdana;fontSize=12;align=center;" parent="1" vertex="1">
                    <mxGeometry x="1021.71" y="458" width="100" height="555" as="geometry"/>
                </mxCell>
                <mxCell id="70" value="" style="html=1;points=[];perimeter=orthogonalPerimeter;rounded=0;shadow=0;comic=0;labelBackgroundColor=none;strokeWidth=1;fontFamily=Verdana;fontSize=12;align=center;" parent="8" vertex="1">
                    <mxGeometry x="45" y="356" width="10" height="56" as="geometry"/>
                </mxCell>
                <mxCell id="10" value="custom_search_bar" style="shape=umlLifeline;perimeter=lifelinePerimeter;whiteSpace=wrap;html=1;container=1;collapsible=0;recursiveResize=0;outlineConnect=0;rounded=1;shadow=0;comic=0;labelBackgroundColor=none;strokeWidth=1;fontFamily=Verdana;fontSize=12;align=center;" parent="1" vertex="1">
                    <mxGeometry x="85" y="72" width="148" height="588" as="geometry"/>
                </mxCell>
                <mxCell id="11" value="" style="html=1;points=[];perimeter=orthogonalPerimeter;rounded=0;shadow=0;comic=0;labelBackgroundColor=none;strokeWidth=1;fontFamily=Verdana;fontSize=12;align=center;" parent="10" vertex="1">
                    <mxGeometry x="69.5" y="99" width="10" height="114" as="geometry"/>
                </mxCell>
                <mxCell id="90" style="edgeStyle=none;html=1;" edge="1" parent="10" target="86">
                    <mxGeometry relative="1" as="geometry">
                        <Array as="points">
                            <mxPoint x="186.5" y="140"/>
                        </Array>
                        <mxPoint x="79.5" y="140" as="sourcePoint"/>
                        <mxPoint x="225" y="140" as="targetPoint"/>
                    </mxGeometry>
                </mxCell>
                <mxCell id="91" value="delegate" style="edgeLabel;html=1;align=center;verticalAlign=middle;resizable=0;points=[];" vertex="1" connectable="0" parent="90">
                    <mxGeometry x="0.0547" y="1" relative="1" as="geometry">
                        <mxPoint x="-30" y="-7" as="offset"/>
                    </mxGeometry>
                </mxCell>
                <mxCell id="25" value="onAddPoiEvent(this.poiName)" style="html=1;verticalAlign=bottom;endArrow=block;entryX=0;entryY=0;labelBackgroundColor=none;fontFamily=Verdana;fontSize=12;edgeStyle=elbowEdgeStyle;elbow=vertical;" parent="1" edge="1">
                    <mxGeometry x="-0.4333" relative="1" as="geometry">
                        <mxPoint x="371.66666666666674" y="564" as="sourcePoint"/>
                        <mxPoint x="718.7100000000003" y="564.0000000000009" as="targetPoint"/>
                        <mxPoint as="offset"/>
                    </mxGeometry>
                </mxCell>
                <mxCell id="26" value="onUpdateTourWithPoisEvent(this.EcoCityTour)" style="html=1;verticalAlign=bottom;endArrow=block;labelBackgroundColor=none;fontFamily=Verdana;fontSize=12;edgeStyle=elbowEdgeStyle;elbow=vertical;" parent="1" edge="1">
                    <mxGeometry x="-0.1635" y="6" relative="1" as="geometry">
                        <mxPoint x="730.71" y="814" as="sourcePoint"/>
                        <mxPoint x="1070.21" y="814" as="targetPoint"/>
                        <mxPoint as="offset"/>
                    </mxGeometry>
                </mxCell>
                <mxCell id="57" style="edgeStyle=none;html=1;" parent="1" source="56" target="10" edge="1">
                    <mxGeometry relative="1" as="geometry">
                        <Array as="points">
                            <mxPoint x="120" y="171"/>
                        </Array>
                    </mxGeometry>
                </mxCell>
                <mxCell id="58" value="button.onPressed()" style="edgeLabel;html=1;align=center;verticalAlign=middle;resizable=0;points=[];" parent="57" vertex="1" connectable="0">
                    <mxGeometry x="0.0547" y="1" relative="1" as="geometry">
                        <mxPoint x="-1" y="-9" as="offset"/>
                    </mxGeometry>
                </mxCell>
                <mxCell id="56" value="Usuario" style="shape=umlLifeline;participant=umlActor;perimeter=lifelinePerimeter;whiteSpace=wrap;html=1;container=1;collapsible=0;recursiveResize=0;verticalAlign=top;spacingTop=36;outlineConnect=0;" parent="1" vertex="1">
                    <mxGeometry x="2" y="59" width="23" height="941" as="geometry"/>
                </mxCell>
                <mxCell id="66" style="edgeStyle=none;html=1;" parent="1" target="82" edge="1">
                    <mxGeometry relative="1" as="geometry">
                        <mxPoint x="732.71" y="622" as="sourcePoint"/>
                        <mxPoint x="1137.21" y="622" as="targetPoint"/>
                    </mxGeometry>
                </mxCell>
                <mxCell id="67" value="optimizedRoute()" style="edgeLabel;html=1;align=center;verticalAlign=middle;resizable=0;points=[];" parent="66" vertex="1" connectable="0">
                    <mxGeometry x="-0.5782" y="-1" relative="1" as="geometry">
                        <mxPoint x="6" y="-10" as="offset"/>
                    </mxGeometry>
                </mxCell>
                <mxCell id="68" style="edgeStyle=none;html=1;dashed=1;" parent="1" source="82" edge="1">
                    <mxGeometry relative="1" as="geometry">
                        <mxPoint x="730.71" y="682" as="targetPoint"/>
                        <mxPoint x="1137.21" y="682" as="sourcePoint"/>
                    </mxGeometry>
                </mxCell>
                <mxCell id="69" value="OptimizedRoute" style="edgeLabel;html=1;align=center;verticalAlign=middle;resizable=0;points=[];" parent="68" vertex="1" connectable="0">
                    <mxGeometry x="-0.455" relative="1" as="geometry">
                        <mxPoint x="-3" y="-11" as="offset"/>
                    </mxGeometry>
                </mxCell>
                <mxCell id="82" value="A05 - Google Direction Service" style="shape=umlLifeline;participant=umlActor;perimeter=lifelinePerimeter;whiteSpace=wrap;html=1;container=1;collapsible=0;recursiveResize=0;verticalAlign=bottom;spacingTop=36;outlineConnect=0;labelPosition=center;verticalLabelPosition=top;align=center;" parent="1" vertex="1">
                    <mxGeometry x="889.71" y="458" width="20" height="553" as="geometry"/>
                </mxCell>
                <mxCell id="83" value="" style="html=1;points=[];perimeter=orthogonalPerimeter;rounded=0;shadow=0;comic=0;labelBackgroundColor=none;strokeWidth=1;fontFamily=Verdana;fontSize=12;align=center;" parent="82" vertex="1">
                    <mxGeometry x="5" y="163" width="10" height="57" as="geometry"/>
                </mxCell>
                <mxCell id="84" style="edgeStyle=none;html=1;dashed=1;exitX=0.7;exitY=1.017;exitDx=0;exitDy=0;exitPerimeter=0;" parent="1" edge="1" target="86" source="99">
                    <mxGeometry relative="1" as="geometry">
                        <mxPoint x="327" y="734" as="targetPoint"/>
                        <mxPoint x="556" y="734" as="sourcePoint"/>
                    </mxGeometry>
                </mxCell>
                <mxCell id="85" value="State()" style="edgeLabel;html=1;align=center;verticalAlign=middle;resizable=0;points=[];" parent="84" vertex="1" connectable="0">
                    <mxGeometry x="-0.455" relative="1" as="geometry">
                        <mxPoint x="166" y="471" as="offset"/>
                    </mxGeometry>
                </mxCell>
                <mxCell id="102" value="Listview(Places)" style="edgeLabel;html=1;align=center;verticalAlign=middle;resizable=0;points=[];" vertex="1" connectable="0" parent="84">
                    <mxGeometry x="-0.4839" y="2" relative="1" as="geometry">
                        <mxPoint y="-14" as="offset"/>
                    </mxGeometry>
                </mxCell>
                <mxCell id="86" value="search_destination_delegate" style="shape=umlLifeline;perimeter=lifelinePerimeter;whiteSpace=wrap;html=1;container=1;collapsible=0;recursiveResize=0;outlineConnect=0;rounded=1;shadow=0;comic=0;labelBackgroundColor=none;strokeWidth=1;fontFamily=Verdana;fontSize=12;align=center;" vertex="1" parent="1">
                    <mxGeometry x="271" y="72" width="202" height="588" as="geometry"/>
                </mxCell>
                <mxCell id="87" value="" style="html=1;points=[];perimeter=orthogonalPerimeter;rounded=0;shadow=0;comic=0;labelBackgroundColor=none;strokeWidth=1;fontFamily=Verdana;fontSize=12;align=center;" vertex="1" parent="86">
                    <mxGeometry x="96" y="137" width="10" height="356" as="geometry"/>
                </mxCell>
                <mxCell id="95" style="edgeStyle=none;html=1;dashed=1;exitX=0.4;exitY=0.983;exitDx=0;exitDy=0;exitPerimeter=0;" edge="1" parent="86">
                    <mxGeometry relative="1" as="geometry">
                        <mxPoint x="-259" y="190.99800000000005" as="targetPoint"/>
                        <mxPoint x="99" y="190.99800000000005" as="sourcePoint"/>
                    </mxGeometry>
                </mxCell>
                <mxCell id="97" value="buildsugestions" style="edgeLabel;html=1;align=center;verticalAlign=middle;resizable=0;points=[];" vertex="1" connectable="0" parent="95">
                    <mxGeometry x="-0.6648" y="-1" relative="1" as="geometry">
                        <mxPoint x="11" y="-9" as="offset"/>
                    </mxGeometry>
                </mxCell>
                <mxCell id="88" style="edgeStyle=none;html=1;dashed=1;exitX=0.4;exitY=0.983;exitDx=0;exitDy=0;exitPerimeter=0;" edge="1" parent="1">
                    <mxGeometry relative="1" as="geometry">
                        <mxPoint x="13" y="442.9680000000001" as="targetPoint"/>
                        <mxPoint x="371" y="442.9680000000001" as="sourcePoint"/>
                    </mxGeometry>
                </mxCell>
                <mxCell id="92" value="builldresult(ListViewBuilder)" style="edgeLabel;html=1;align=center;verticalAlign=middle;resizable=0;points=[];" vertex="1" connectable="0" parent="88">
                    <mxGeometry x="-0.6648" y="-1" relative="1" as="geometry">
                        <mxPoint x="-18" y="-11" as="offset"/>
                    </mxGeometry>
                </mxCell>
                <mxCell id="93" style="edgeStyle=none;html=1;" edge="1" parent="1">
                    <mxGeometry relative="1" as="geometry">
                        <Array as="points">
                            <mxPoint x="65" y="329"/>
                        </Array>
                        <mxPoint x="15" y="329" as="sourcePoint"/>
                        <mxPoint x="371.5" y="329" as="targetPoint"/>
                    </mxGeometry>
                </mxCell>
                <mxCell id="94" value="context.place" style="edgeLabel;html=1;align=center;verticalAlign=middle;resizable=0;points=[];" vertex="1" connectable="0" parent="93">
                    <mxGeometry x="0.0547" y="1" relative="1" as="geometry">
                        <mxPoint x="-148" y="-11" as="offset"/>
                    </mxGeometry>
                </mxCell>
                <mxCell id="98" value="A04- Google Places Service" style="shape=umlLifeline;participant=umlActor;perimeter=lifelinePerimeter;whiteSpace=wrap;html=1;container=1;collapsible=0;recursiveResize=0;verticalAlign=bottom;spacingTop=36;outlineConnect=0;labelPosition=center;verticalLabelPosition=top;align=center;" vertex="1" parent="1">
                    <mxGeometry x="561" y="82" width="20" height="583" as="geometry"/>
                </mxCell>
                <mxCell id="99" value="" style="html=1;points=[];perimeter=orthogonalPerimeter;rounded=0;shadow=0;comic=0;labelBackgroundColor=none;strokeWidth=1;fontFamily=Verdana;fontSize=12;align=center;" vertex="1" parent="98">
                    <mxGeometry x="5" y="279" width="10" height="58" as="geometry"/>
                </mxCell>
                <mxCell id="100" style="edgeStyle=none;html=1;entryX=0.2;entryY=-0.017;entryDx=0;entryDy=0;entryPerimeter=0;" edge="1" parent="1" source="87" target="99">
                    <mxGeometry relative="1" as="geometry"/>
                </mxCell>
                <mxCell id="101" value="request(search)" style="edgeLabel;html=1;align=center;verticalAlign=middle;resizable=0;points=[];" vertex="1" connectable="0" parent="100">
                    <mxGeometry x="-0.7592" y="2" relative="1" as="geometry">
                        <mxPoint x="22" y="-10" as="offset"/>
                    </mxGeometry>
                </mxCell>
                <mxCell id="103" style="edgeStyle=none;html=1;" edge="1" parent="1" source="56" target="86">
                    <mxGeometry relative="1" as="geometry">
                        <Array as="points">
                            <mxPoint x="111" y="525"/>
                        </Array>
                        <mxPoint x="4" y="525" as="sourcePoint"/>
                        <mxPoint x="497" y="525" as="targetPoint"/>
                    </mxGeometry>
                </mxCell>
                <mxCell id="104" value="Listview.onTap()" style="edgeLabel;html=1;align=center;verticalAlign=middle;resizable=0;points=[];" vertex="1" connectable="0" parent="103">
                    <mxGeometry x="0.0547" y="1" relative="1" as="geometry">
                        <mxPoint x="-1" y="-9" as="offset"/>
                    </mxGeometry>
                </mxCell>
                <mxCell id="105" style="edgeStyle=none;html=1;" edge="1" parent="1">
                    <mxGeometry relative="1" as="geometry">
                        <mxPoint x="718.71" y="905.5" as="sourcePoint"/>
                        <mxPoint x="12.181818181818471" y="905.5" as="targetPoint"/>
                    </mxGeometry>
                </mxCell>
            </root>
        </mxGraphModel>
    </diagram>
</mxfile>